# Blender 3.4.1
# www.blender.org
o Cube
v -0.485000 -0.500000 0.485000
v -0.485000 -0.485000 0.500000
v -0.500000 -0.485000 0.485000
v -0.485000 0.485000 0.500000
v -0.485000 0.500000 0.485000
v -0.500000 0.485000 0.485000
v -0.485000 -0.500000 -0.485000
v -0.500000 -0.485000 -0.485000
v -0.485000 -0.485000 -0.500000
v -0.485000 0.500000 -0.485000
v -0.485000 0.485000 -0.500000
v -0.500000 0.485000 -0.485000
v 0.485000 -0.500000 0.485000
v 0.500000 -0.485000 0.485000
v 0.485000 -0.485000 0.500000
v 0.485000 0.500000 0.485000
v 0.485000 0.485000 0.500000
v 0.500000 0.485000 0.485000
v 0.485000 -0.500000 -0.485000
v 0.485000 -0.485000 -0.500000
v 0.500000 -0.485000 -0.485000
v 0.485000 0.500000 -0.485000
v 0.500000 0.485000 -0.485000
v 0.485000 0.485000 -0.500000
vn -0.0000 -0.0000 1.0000
vn 1.0000 -0.0000 -0.0000
vn -0.0000 1.0000 -0.0000
vn -1.0000 -0.0000 -0.0000
vn -0.0000 -0.0000 -1.0000
vn -0.5774 -0.5774 0.5774
vn -0.5774 0.5774 0.5774
vn -0.5774 -0.5774 -0.5774
vn -0.5774 0.5774 -0.5774
vn 0.5774 -0.5774 0.5774
vn 0.5774 0.5774 0.5774
vn 0.5774 -0.5774 -0.5774
vn 0.5774 0.5774 -0.5774
vn -0.7071 -0.7071 -0.0000
vn -0.7071 -0.0000 0.7071
vn -0.7071 0.7071 -0.0000
vn -0.7071 -0.0000 -0.7071
vn -0.0000 -0.7071 -0.7071
vn -0.0000 0.7071 -0.7071
vn 0.7071 -0.0000 -0.7071
vn 0.7071 -0.7071 -0.0000
vn 0.7071 0.7071 -0.0000
vn 0.7071 -0.0000 0.7071
vn -0.0000 -0.7071 0.7071
vn -0.0000 0.7071 0.7071
vn -0.0000 -1.0000 -0.0000
vt 0.746250 0.867500
vt 0.000000 0.617500
vt 0.996250 0.617500
vt 0.750000 0.867500
vt 0.746250 0.871250
vt 0.003750 0.617500
vt 0.000000 0.375000
vt 0.996250 0.375000
vt 0.003750 0.371250
vt 0.746250 0.125000
vt 0.996250 0.371250
vt 0.003750 0.375000
vt 0.503750 0.867500
vt 0.503750 0.871250
vt 0.246250 0.617500
vt 0.253750 0.617500
vt 0.500000 0.867500
vt 0.253750 0.371250
vt 0.503750 0.125000
vt 0.246250 0.371250
vt 0.250000 0.375000
vt 0.253750 0.375000
vt 0.246250 0.375000
vt 0.746250 0.625000
vt 0.746250 0.621250
vt 0.746250 0.617500
vt 0.753750 0.617500
vt 0.750000 0.625000
vt 0.753750 0.371250
vt 0.746250 0.367500
vt 0.753750 0.375000
vt 0.750000 0.375000
vt 0.746250 0.375000
vt 0.503750 0.625000
vt 0.500000 0.625000
vt 0.496250 0.617500
vt 0.503750 0.621250
vt 0.503750 0.617500
vt 0.503750 0.367500
vt 0.496250 0.371250
vt 0.500000 0.375000
vt 0.503750 0.375000
vt 0.496250 0.375000
s 0
f 17/31/1 2/3/1 15/27/1
f 23/42/2 14/26/2 21/38/2
f 10/19/3 16/30/3 22/39/3
f 6/12/4 8/15/4 3/6/4
f 11/22/5 20/36/5 9/16/5
f 1/1/6 2/4/6 3/5/6
f 4/7/7 5/9/7 6/12/7
f 7/13/8 8/14/8 9/17/8
f 10/20/9 11/21/9 12/23/9
f 13/24/10 14/25/10 15/28/10
f 16/29/11 17/31/11 18/32/11
f 19/34/12 20/35/12 21/37/12
f 22/40/13 23/41/13 24/43/13
f 1/1/14 8/14/14 7/13/14
f 4/7/15 3/6/15 2/2/15
f 10/20/16 6/12/16 5/9/16
f 9/16/17 12/23/17 11/22/17
f 7/13/18 20/35/18 19/34/18
f 22/40/19 11/22/19 10/18/19
f 21/38/20 24/43/20 23/42/20
f 19/34/21 14/26/21 13/24/21
f 16/30/22 23/42/22 22/39/22
f 15/27/23 18/33/23 17/31/23
f 13/24/24 2/4/24 1/1/24
f 5/11/25 17/31/25 16/29/25
f 19/34/26 1/1/26 7/13/26
f 17/31/1 4/8/1 2/3/1
f 23/42/2 18/33/2 14/26/2
f 10/19/3 5/10/3 16/30/3
f 6/12/4 12/23/4 8/15/4
f 11/22/5 24/43/5 20/36/5
f 1/1/14 3/5/14 8/14/14
f 4/7/15 6/12/15 3/6/15
f 10/20/16 12/23/16 6/12/16
f 9/16/17 8/15/17 12/23/17
f 7/13/18 9/17/18 20/35/18
f 22/40/19 24/43/19 11/22/19
f 21/38/20 20/36/20 24/43/20
f 19/34/21 21/38/21 14/26/21
f 16/30/22 18/33/22 23/42/22
f 15/27/23 14/26/23 18/33/23
f 13/24/24 15/28/24 2/4/24
f 5/11/25 4/8/25 17/31/25
f 19/34/26 13/24/26 1/1/26
